<svg xmlns="http://www.w3.org/2000/svg" fill-rule="evenodd" viewBox="0 0 100 100">
    <path d="M50.465 57.735c-19.501 0-35.367 15.867-35.367 35.371a1.5 1.5 0 0 0 1.5 1.5h67.734a1.5 1.5 0 0 0 1.5-1.5c0-19.504-15.865-35.371-35.367-35.371zM18.132 91.606c.786-17.156 14.988-30.871 32.333-30.871S82.013 74.45 82.798 91.606H18.132zm31.744-78.227c-11.228 0-20.363 9.135-20.363 20.363s9.135 20.363 20.363 20.363c11.229 0 20.363-9.135 20.363-20.363s-9.135-20.363-20.363-20.363zm0 37.726c-9.574 0-17.363-7.789-17.363-17.363s7.789-17.363 17.363-17.363 17.363 7.789 17.363 17.363-7.789 17.363-17.363 17.363z"/>
    <path d="M25.138 44.889a1.5 1.5 0 0 0 1.5-1.5V23.977c0-.096-.011-.189-.028-.28 4.019-9.319 13.054-15.304 23.267-15.304 10.396 0 19.582 6.202 23.486 15.816v19.067a25.236 25.236 0 0 1-5.45 8.28 1.5 1.5 0 1 0 2.135 2.108 28.222 28.222 0 0 0 5.893-8.774h1.054c6.179 0 11.206-5.027 11.206-11.206s-5.027-11.206-11.206-11.206h-1.118c-4.503-10.403-14.596-17.084-26-17.084-11.41 0-21.504 6.68-26.005 17.084h-.866c-6.179 0-11.206 5.027-11.206 11.206S16.827 44.89 23.006 44.89h2.132zm60.063-11.206c0 4.525-3.682 8.206-8.206 8.206h-.632V25.477h.632c4.525 0 8.206 3.681 8.206 8.206zm-70.401 0c0-4.525 3.681-8.206 8.206-8.206h.632v16.412h-.632c-4.525 0-8.206-3.681-8.206-8.206z"/>
</svg>
