<svg xmlns="http://www.w3.org/2000/svg" fill-rule="evenodd" viewBox="0 0 100 100">
    <path d="m91.129 42.712-.006-.057a1.514 1.514 0 0 0-.123-.509l-.019-.036a1.512 1.512 0 0 0-.324-.443c-.005-.005-.007-.011-.012-.016l-13.39-12.236V17.203a1.5 1.5 0 0 0-1.5-1.5H62.233L50.805 5.26a1.5 1.5 0 0 0-2.023 0L37.346 15.703H24.657a1.5 1.5 0 0 0-1.5 1.5V28.66L8.94 41.651c-.005.005-.007.011-.012.016a1.512 1.512 0 0 0-.324.443l-.02.037c-.07.157-.11.328-.123.508-.001.02-.005.039-.006.059 0 .016-.005.03-.005.046v50.875c0 .164.033.32.082.468l.018.059a1.5 1.5 0 0 0 .28.462c.007.008.009.018.016.026.006.007.014.011.021.018.049.051.103.096.159.14.025.019.047.042.073.06.066.046.137.083.21.117.018.008.034.021.052.028.181.077.38.121.589.121h79.682a1.5 1.5 0 0 0 1.5-1.5V42.759c.002-.016-.002-.031-.003-.047zm-79.677 3.591 12.133 11.082c.016.016.034.031.051.046L35.392 68.17l-23.94 22.043v-43.91zm26.163 23.898 11.579 10.576a1.496 1.496 0 0 0 2.023.001L62.759 70.25l23.104 21.883H13.796l23.819-21.932zm27.366-1.977 23.153-21.118v43.047L64.981 68.224zm22.947-24.992-10.674 9.735V33.479l10.674 9.753zM49.792 8.399l7.994 7.304H41.795l7.997-7.304zm24.463 10.304v37.001l-12.542 11.44c-.009.009-.021.012-.03.021-.004.004-.005.01-.009.015L50.207 77.639l-24.05-21.967V18.703h48.098zM23.157 52.932 12.098 42.83l11.059-10.106v20.208z"/>
    <path d="M50.206 61.105c3.451 0 6.766-1.059 9.585-3.062a1.498 1.498 0 0 0 .354-2.091 1.497 1.497 0 0 0-2.091-.354 13.485 13.485 0 0 1-7.849 2.507c-7.448 0-13.507-6.062-13.507-13.514 0-7.455 6.059-13.52 13.507-13.52 5.455 0 9.848 2.721 12.108 7.469v8.136a2.452 2.452 0 0 1-2.453 2.446c-1.286 0-2.491-1.203-2.594-2.522a7.574 7.574 0 0 0 .278-2.01c0-4.2-3.421-7.618-7.625-7.618-4.205 0-7.625 3.417-7.625 7.618 0 4.201 3.42 7.618 7.625 7.618a7.6 7.6 0 0 0 5.518-2.376c1.046 1.37 2.669 2.29 4.422 2.29a5.456 5.456 0 0 0 5.453-5.446V38.19l-.002-.021c-.001-.044-.009-.088-.013-.132-.006-.056-.009-.113-.021-.167-.005-.025-.016-.049-.023-.073a1.52 1.52 0 0 0-.071-.213l-.004-.011c-2.688-5.95-8.285-9.502-14.975-9.502-9.102 0-16.507 7.411-16.507 16.52.003 9.106 7.408 16.514 16.51 16.514zm-.285-11.896c-2.55 0-4.625-2.072-4.625-4.618s2.075-4.618 4.625-4.618 4.625 2.071 4.625 4.618-2.075 4.618-4.625 4.618z"/>
</svg>
